<?xml version="1.0" encoding="utf-8"?>
<?xml-stylesheet type="text/xsl" href="rss1.xsl"?>
<rss version="2.0" xmlns:atom="http://www.w3.org/2005/Atom" xmlns:content="http://purl.org/rss/1.0/modules/content/" xmlns:dc="http://purl.org/dc/elements/1.1/" xmlns:media="http://search.yahoo.com/mrss/">
<channel>
 <title>Getty</title>
 <link>http://www.gettyimg.com/</link>
 <atom:link href="http://www.gettyimg.com/" rel="self" type="application/rss+xml" />

 
                <item>
                <title><![CDATA[【BLU-RAY】BD REMUX - Jennifer Lopez Dance Again 2014 1080p BluRay REMUX AVC PCM 5.1-SiGLA]]></title>
                <link><![CDATA[https://sharemania.us/threads/jennifer-lopez-dance-again-2014-1080p-bluray-remux-avc-pcm-5-1-sigla.242497/]]></link>
                <description><![CDATA[<article>
<blockquote class="messageText SelectQuoteContainer ugc baseHtml">
<img src="https://ptpimg.me/i5rh1i.jpg" class="bbCodeImage LbImage" alt="[​IMG]" data-url="https://ptpimg.me/i5rh1i.jpg" style=""><br>
<img src="https://ptpimg.me/l65473.jpg" class="bbCodeImage LbImage" alt="[​IMG]" data-url="https://ptpimg.me/l65473.jpg" style=""><br>
<br>
<div class="ToggleTriggerAnchor bbCodeSpoilerContainer">
<button type="button" class="button bbCodeSpoilerButton ToggleTrigger Tooltip JsOnly" data-target="> .SpoilerTarget"><span>Spoiler: <span class="SpoilerTitle">MediaInfo - Documentário</span></span></button>
<div class="SpoilerTarget bbCodeSpoilerText">General<br>
Unique ID : 10644098120166565544079102854478321563 (0x801FA8E0DA9E8F9E6AF19303786579B)<br>
Complete name : Jennifer.Lopez.Dance.Again.2014.1080p.BluRay.REMUX.AVC.PCM.5.1-SiGLA.mkv<br>
Format : Matroska<br>
Format version : Version 4<br>
File size : 14.0 GiB<br>
Duration : 1 h 25 min<br>
Overall bit rate mode : Variable<br>
Overall bit rate : 23.4 Mb/s<br>
Movie name : Jennifer Lopez Dance Again (2014)<br>
Writing application : mkvmerge v82.0 ('SiGLA') 64-bit<br>
Writing library : libebml v1.4.5 + libmatroska v1.7.1<br>
Cover : Yes<br>
Attachments : cover.jpg<br>
IMDb : tt2346480<br>
TMDB : movie/315291<br>
TVDB : 101892<br>
Video<br>
ID : 1<br>
ID in the original source medium : 4113 (0x1011)<br>
Format : AVC<br>
Format/Info : Advanced Video Codec<br>
Format profile : High@L4.1<br>
Format settings : CABAC / 2 Ref Frames<br>
Format settings, CABAC : Yes<br>
Format settings, Reference frames : 2 frames<br>
Format settings, GOP : M=1, N=10<br>
Codec ID : V_MPEG4/ISO/AVC<br>
Duration : 1 h 25 min<br>
Bit rate mode : Variable<br>
Bit rate : 14.9 Mb/s<br>
Width : 1 920 pixels<br>
Height : 1 080 pixels<br>
Display aspect ratio : 16:9<br>
Frame rate mode : Constant<br>
Frame rate : 23.976 (24000/1001) FPS<br>
Color space : YUV<br>
Chroma subsampling : 4:2:0<br>
Bit depth : 8 bits<br>
Scan type : Progressive<br>
Bits/(Pixel*Frame) : 0.300<br>
Stream size : 8.94 GiB (64%)<br>
Language : English<br>
Default : Yes<br>
Forced : No<br>
Original source medium : Blu-ray<br>
Audio #1<br>
ID : 2<br>
ID in the original source medium : 4352 (0x1100)<br>
Format : PCM<br>
Format settings : Little / Signed<br>
Codec ID : A_MS/ACM / 00000001-0000-0010-8000-00AA00389B71<br>
Duration : 1 h 25 min<br>
Bit rate mode : Constant<br>
Bit rate : 6 912 kb/s / 6 912 kb/s<br>
Channel(s) : 6 channels<br>
Channel layout : L R C LFE Ls Rs<br>
Sampling rate : 48.0 kHz<br>
Frame rate : 30.000 FPS (1600 SPF)<br>
Bit depth : 24 bits<br>
Stream size : 4.14 GiB (30%)<br>
Language : English<br>
Default : Yes<br>
Forced : No<br>
Original source medium : Blu-ray<br>
Audio #2<br>
ID : 3<br>
Format : FLAC<br>
Format/Info : Free Lossless Audio Codec<br>
Codec ID : A_FLAC<br>
Duration : 1 h 25 min<br>
Bit rate mode : Variable<br>
Bit rate : 1 542 kb/s<br>
Channel(s) : 2 channels<br>
Channel layout : L R<br>
Sampling rate : 48.0 kHz<br>
Frame rate : 11.719 FPS (4096 SPF)<br>
Bit depth : 24 bits<br>
Compression mode : Lossless<br>
Stream size : 945 MiB (7%)<br>
Writing library : libFLAC 1.2.1 (UTC 2007-09-17)<br>
Language : English<br>
Default : No<br>
Forced : No<br>
Menu<br>
00:00:00.000 : Chapter 01<br>
00:06:35.436 : Chapter 02<br>
00:13:05.534 : Chapter 03<br>
00:17:54.406 : Chapter 04<br>
00:23:38.417 : Chapter 05<br>
00:34:16.804 : Chapter 06<br>
00:43:10.796 : Chapter 07<br>
00:56:08.573 : Chapter 08<br>
01:05:47.818 : Chapter 09<br>
01:09:32.960 : Chapter 10<br>
01:14:38.557 : Chapter 11<br>
01:22:15.430 : Chapter 12</div>
</div><b>About:</b> Featuring intimate documentary footage and interviews with Lopez and her closest friends, as well as spectacular in-concert renditions of many of her biggest hits, the docu-concert goes behind the scenes of the superstar’s first world tour, which visits in 65 cities and five continents, travelling 100,000 miles and reaching one million fans, producing 11,250 minutes of music, and requiring 500,000 sequins and 162 wardrobe changes.<br>
<br>
<div class="ToggleTriggerAnchor bbCodeSpoilerContainer">
<button type="button" class="button bbCodeSpoilerButton ToggleTrigger Tooltip JsOnly" data-target="> .SpoilerTarget"><span>Spoiler: <span class="SpoilerTitle">MediaInfo - Show</span></span></button>
<div class="SpoilerTarget bbCodeSpoilerText">General<br>
Unique ID : 201938176300876123763829562764637178286 (0x97EBE0C8E2E0021FDB60C6391B0309AE)<br>
Complete name : Jennifer.Lopez.Dance.Again.2014.Show.1080p.BluRay.REMUX.AVC.PCM.5.1-SiGLA.mkv<br>
Format : Matroska<br>
Format version : Version 4<br>
File size : 4.76 GiB<br>
Duration : 31 min 37 s<br>
Overall bit rate mode : Variable<br>
Overall bit rate : 21.5 Mb/s<br>
Movie name : Jennifer Lopez Dance Again (2014)<br>
Writing application : mkvmerge v82.0 ('SiGLA') 64-bit<br>
Writing library : libebml v1.4.5 + libmatroska v1.7.1<br>
Cover : Yes<br>
Attachments : cover.jpg<br>
IMDb : tt2346480<br>
TMDB : movie/315291<br>
TVDB : 101892<br>
Video<br>
ID : 1<br>
ID in the original source medium : 4113 (0x1011)<br>
Format : AVC<br>
Format/Info : Advanced Video Codec<br>
Format profile : High@L4.1<br>
Format settings : CABAC / 2 Ref Frames<br>
Format settings, CABAC : Yes<br>
Format settings, Reference frames : 2 frames<br>
Codec ID : V_MPEG4/ISO/AVC<br>
Duration : 31 min 37 s<br>
Bit rate mode : Variable<br>
Bit rate : 12.9 Mb/s<br>
Width : 1 920 pixels<br>
Height : 1 080 pixels<br>
Display aspect ratio : 16:9<br>
Frame rate mode : Constant<br>
Frame rate : 23.976 (24000/1001) FPS<br>
Color space : YUV<br>
Chroma subsampling : 4:2:0<br>
Bit depth : 8 bits<br>
Scan type : Progressive<br>
Bits/(Pixel*Frame) : 0.259<br>
Stream size : 2.84 GiB (60%)<br>
Language : English<br>
Default : Yes<br>
Forced : No<br>
Original source medium : Blu-ray<br>
Audio #1<br>
ID : 2<br>
ID in the original source medium : 4352 (0x1100)<br>
Format : PCM<br>
Format settings : Little / Signed<br>
Codec ID : A_MS/ACM / 00000001-0000-0010-8000-00AA00389B71<br>
Duration : 31 min 37 s<br>
Bit rate mode : Constant<br>
Bit rate : 6 912 kb/s / 6 912 kb/s<br>
Channel(s) : 6 channels<br>
Channel layout : L R C LFE Ls Rs<br>
Sampling rate : 48.0 kHz<br>
Frame rate : 30.000 FPS (1600 SPF)<br>
Bit depth : 24 bits<br>
Stream size : 1.53 GiB (32%)<br>
Language : English<br>
Default : Yes<br>
Forced : No<br>
Original source medium : Blu-ray<br>
Audio #2<br>
ID : 3<br>
Format : FLAC<br>
Format/Info : Free Lossless Audio Codec<br>
Codec ID : A_FLAC<br>
Duration : 31 min 37 s<br>
Bit rate mode : Variable<br>
Bit rate : 1 739 kb/s<br>
Channel(s) : 2 channels<br>
Channel layout : L R<br>
Sampling rate : 48.0 kHz<br>
Frame rate : 11.719 FPS (4096 SPF)<br>
Bit depth : 24 bits<br>
Compression mode : Lossless<br>
Stream size : 393 MiB (8%)<br>
Writing library : libFLAC 1.2.1 (UTC 2007-09-17)<br>
Language : English<br>
Default : No<br>
Forced : No<br>
Menu<br>
00:00:00.000 : en:Get Right<br>
00:02:16.261 : en<img src="styles/default/xenforo/smilies/grimace-48.png" class="mceSmilie" alt=":p" title="Stick Out Tongue    :p">api<br>
00:03:40.595 : en<img src="styles/default/xenforo/smilies/exciting-48.png" class="mceSmilie" alt=":D" title="Big Grin    :D">o It Well<br>
00:04:58.965 : en:If You Had My Love<br>
00:06:52.912 : en:Love Don't Cost A Thing<br>
00:09:18.349 : en:I'm Into You<br>
00:11:16.258 : en:Goin' In<br>
00:12:34.545 : en:Waiting For Tonight<br>
00:14:38.168 : en:Until It Beats No More<br>
00:16:42.001 : en:On The Floor<br>
00:18:02.748 : en:Let's Get Loud<br>
00:21:47.180 : en:Hold It Don't Drop It<br>
00:23:46.716 : en:No Me Ames<br>
00:26:43.560 : en<img src="styles/default/xenforo/smilies/exciting-48.png" class="mceSmilie" alt=":D" title="Big Grin    :D">ance Again<br>
00:28:36.339 : en:First Love</div>
</div>01. Get Right<br>
02. Papi<br>
03. Do It Well<br>
04. If You Had My Love<br>
05. Love Don't Cost A Thing<br>
06. I'm Into You<br>
07. Goin' In<br>
08. Waiting For Tonight<br>
09. Until It Beats No More<br>
10. On The Floor<br>
11. Let's Get Loud<br>
12. Hold It Don't Drop It<br>
13. No Me Ames<br>
14. Dance Again<br>
15. First Love<br>
<br>
<div class="bbCodeBlock bbCodeVfcHH HiddenContent">
<div class="attribution type">Hidden Content:</div>
<blockquote>You must either reply or click 'Like' to see the hidden information contained here.</blockquote>
</div>
<div class="messageTextEndMarker">&nbsp;</div>
</blockquote>
</article>]]></description>
                <author><![CDATA[-C.A.A]]></author>
                </item>

                
                <item>
                <title><![CDATA[【Requests】[REQ VID] - Taylor Swift - Rock and Roll Hall of Fame Induction 2021 (With dolby atmos sound)]]></title>
                <link><![CDATA[https://sharemania.us/threads/taylor-swift-rock-and-roll-hall-of-fame-induction-2021-with-dolby-atmos-sound.242498/]]></link>
                <description><![CDATA[<article>
<blockquote class="messageText SelectQuoteContainer ugc baseHtml">
Could someone reupload this? I'd like the dolby atmos version so that I can make a studio remix, but it has to be from the official video because it loses certain stems when it's downmixed. <br>
melodie's version is removed <img src="styles/default/xenforo/smilies/unhappy-48.png" class="mceSmilie" alt=":(" title="Frown    :(">
<div class="messageTextEndMarker">&nbsp;</div>
</blockquote>
</article>]]></description>
                <author><![CDATA[gregcheese2002]]></author>
                </item>

                </channel></rss>